<svg width="50" height="50" viewBox="0 0 50 50" fill="none" xmlns="http://www.w3.org/2000/svg">
<rect x="0.5" y="0.5" width="49" height="49" rx="24.5" fill="white" stroke="#C7C7C7"/>
<path d="M27.0533 33C26.4222 33.0008 25.8102 32.7842 25.32 32.3867L18.52 26.7733C18.2533 26.561 18.038 26.2914 17.89 25.9843C17.742 25.6773 17.6651 25.3408 17.6651 25C17.6651 24.6592 17.742 24.3227 17.89 24.0157C18.038 23.7086 18.2533 23.439 18.52 23.2267L25.32 17.6133C25.7294 17.2853 26.2227 17.0789 26.7436 17.0176C27.2646 16.9563 27.7923 17.0426 28.2667 17.2667C28.6789 17.4484 29.0301 17.7449 29.2784 18.1208C29.5266 18.4968 29.6614 18.9362 29.6667 19.3867V30.6133C29.6614 31.0638 29.5266 31.5032 29.2784 31.8792C29.0301 32.2551 28.6789 32.5516 28.2667 32.7333C27.8855 32.9067 27.472 32.9975 27.0533 33Z" fill="#231F20"/>
</svg>
