<svg width="50" height="50" viewBox="0 0 50 50" fill="none" xmlns="http://www.w3.org/2000/svg">
<rect x="49.5" y="49.5" width="49" height="49" rx="24.5" transform="rotate(-180 49.5 49.5)" fill="white" stroke="#C7C7C7"/>
<path d="M22.9467 17C23.5778 16.9992 24.1898 17.2158 24.68 17.6133L31.48 23.2267C31.7467 23.439 31.962 23.7086 32.11 24.0157C32.258 24.3227 32.3349 24.6592 32.3349 25C32.3349 25.3408 32.258 25.6773 32.11 25.9843C31.962 26.2914 31.7467 26.561 31.48 26.7733L24.68 32.3867C24.2706 32.7147 23.7773 32.9211 23.2564 32.9824C22.7354 33.0437 22.2077 32.9574 21.7333 32.7333C21.3211 32.5516 20.9699 32.2551 20.7216 31.8792C20.4734 31.5032 20.3386 31.0638 20.3333 30.6133L20.3333 19.3867C20.3386 18.9362 20.4734 18.4968 20.7216 18.1208C20.9699 17.7449 21.3211 17.4484 21.7333 17.2667C22.1145 17.0933 22.528 17.0025 22.9467 17Z" fill="#231F20"/>
</svg>
