<svg width="38" height="39" viewBox="0 0 38 39" fill="none" xmlns="http://www.w3.org/2000/svg">
<path d="M19 0.762268C8.50659 0.762268 0 9.26885 0 19.7623C0 30.2557 8.50659 38.7623 19 38.7623C29.4934 38.7623 38 30.2557 38 19.7623C38 9.26885 29.4934 0.762268 19 0.762268ZM17.5458 9.70563L18.3622 13.4653C15.97 13.9948 13.7703 14.6835 13.9485 17.3548H16.7595V27.3605H8.29163V18.0089C8.29464 10.577 13.751 9.9723 17.5458 9.70563ZM28.8897 9.70563L29.7084 13.4653C27.3162 13.9948 25.1165 14.6835 25.2947 17.3548H28.1057V27.3605H19.6378V18.0089C19.6408 10.577 25.0949 9.9723 28.8897 9.70563Z" fill="#231F20"/>
</svg>
