<svg width="20" height="20" viewBox="0 0 20 20" fill="none" xmlns="http://www.w3.org/2000/svg">
<path d="M12.2325 10L19.0408 3.20751C19.339 2.90936 19.5065 2.50499 19.5065 2.08334C19.5065 1.6617 19.339 1.25732 19.0408 0.959175C18.7427 0.661028 18.3383 0.49353 17.9167 0.49353C17.495 0.49353 17.0906 0.661028 16.7925 0.959175L10 7.76751L3.2075 0.959175C2.90935 0.661028 2.50498 0.49353 2.08333 0.49353C1.66169 0.49353 1.25731 0.661028 0.959165 0.959175C0.661018 1.25732 0.49352 1.6617 0.49352 2.08334C0.49352 2.50499 0.661018 2.90936 0.959165 3.20751L7.7675 10L0.959165 16.7925C0.810762 16.9397 0.692971 17.1148 0.612588 17.3078C0.532204 17.5007 0.490818 17.7077 0.490818 17.9167C0.490818 18.1257 0.532204 18.3326 0.612588 18.5256C0.692971 18.7185 0.810762 18.8936 0.959165 19.0408C1.10636 19.1892 1.28148 19.307 1.47442 19.3874C1.66736 19.4678 1.87431 19.5092 2.08333 19.5092C2.29235 19.5092 2.4993 19.4678 2.69225 19.3874C2.88519 19.307 3.06031 19.1892 3.2075 19.0408L10 12.2325L16.7925 19.0408C16.9397 19.1892 17.1148 19.307 17.3078 19.3874C17.5007 19.4678 17.7076 19.5092 17.9167 19.5092C18.1257 19.5092 18.3326 19.4678 18.5256 19.3874C18.7185 19.307 18.8936 19.1892 19.0408 19.0408C19.1892 18.8936 19.307 18.7185 19.3874 18.5256C19.4678 18.3326 19.5092 18.1257 19.5092 17.9167C19.5092 17.7077 19.4678 17.5007 19.3874 17.3078C19.307 17.1148 19.1892 16.9397 19.0408 16.7925L12.2325 10Z" fill="white"/>
</svg>
