<svg width="40" height="40" viewBox="0 0 40 40" fill="none" xmlns="http://www.w3.org/2000/svg">
<path fill-rule="evenodd" clip-rule="evenodd" d="M40 20C40 25.3043 37.8929 30.3914 34.1421 34.1421C30.3914 37.8929 25.3043 40 20 40C14.6957 40 9.60859 37.8929 5.85786 34.1421C2.10714 30.3914 0 25.3043 0 20C0 14.6957 2.10714 9.60859 5.85786 5.85786C9.60859 2.10714 14.6957 0 20 0C25.3043 0 30.3914 2.10714 34.1421 5.85786C37.8929 9.60859 40 14.6957 40 20ZM22.5 10C22.5 10.663 22.2366 11.2989 21.7678 11.7678C21.2989 12.2366 20.663 12.5 20 12.5C19.337 12.5 18.7011 12.2366 18.2322 11.7678C17.7634 11.2989 17.5 10.663 17.5 10C17.5 9.33696 17.7634 8.70107 18.2322 8.23223C18.7011 7.76339 19.337 7.5 20 7.5C20.663 7.5 21.2989 7.76339 21.7678 8.23223C22.2366 8.70107 22.5 9.33696 22.5 10ZM17.5 17.5C16.837 17.5 16.2011 17.7634 15.7322 18.2322C15.2634 18.7011 15 19.337 15 20C15 20.663 15.2634 21.2989 15.7322 21.7678C16.2011 22.2366 16.837 22.5 17.5 22.5V30C17.5 30.663 17.7634 31.2989 18.2322 31.7678C18.7011 32.2366 19.337 32.5 20 32.5H22.5C23.163 32.5 23.7989 32.2366 24.2678 31.7678C24.7366 31.2989 25 30.663 25 30C25 29.337 24.7366 28.7011 24.2678 28.2322C23.7989 27.7634 23.163 27.5 22.5 27.5V20C22.5 19.337 22.2366 18.7011 21.7678 18.2322C21.2989 17.7634 20.663 17.5 20 17.5H17.5Z" fill="#FF8E15"/>
</svg>
