<svg width="44" height="44" viewBox="0 0 44 44" fill="none" xmlns="http://www.w3.org/2000/svg">
<path d="M42.7629 20.625L39.0494 16.2083L39.5685 10.3542C39.6683 9.3125 38.9895 8.35417 38.0311 8.12501L32.5207 6.81251L29.6457 1.75001C29.4 1.31576 29.0113 0.989632 28.5521 0.832462C28.0929 0.675293 27.5945 0.697819 27.1501 0.895839L21.9591 3.25001L16.7881 0.937505C15.8697 0.520839 14.7916 0.895839 14.2924 1.79167L11.3975 6.83334L5.90701 8.12501C4.92871 8.35417 4.24989 9.29167 4.34972 10.3542L4.86882 16.1875L1.15527 20.625C0.496419 21.4167 0.496419 22.5833 1.15527 23.375L4.86882 27.7917L4.34972 33.6667C4.24989 34.7083 4.92871 35.6667 5.88704 35.8958L11.3975 37.2083L14.2725 42.25C14.7916 43.1458 15.8497 43.5208 16.7881 43.1042L21.9591 40.75L27.1301 43.0625C28.0485 43.4792 29.1266 43.1042 29.6258 42.2083L32.5008 37.1458L38.0112 35.8333C38.9895 35.6042 39.6483 34.6458 39.5485 33.6042L39.0294 27.75L42.743 23.3333C43.4218 22.5833 43.4218 21.4167 42.7629 20.625ZM23.9556 32.4167H19.9626V28.25H23.9556V32.4167ZM21.9591 24.0833C20.861 24.0833 19.9626 23.1458 19.9626 22V13.6667C19.9626 12.5208 20.861 11.5833 21.9591 11.5833C23.0572 11.5833 23.9556 12.5208 23.9556 13.6667V22C23.9556 23.1458 23.0572 24.0833 21.9591 24.0833Z" fill="#FF8E15"/>
</svg>
