<svg width="19" height="26" viewBox="0 0 19 26" fill="currentColor" xmlns="http://www.w3.org/2000/svg">
<path d="M8.32734 24.7C5.74453 21.5234 0 13.8245 0 9.5C0 4.25323 4.25323 0 9.5 0C14.7448 0 19 4.25323 19 9.5C19 13.8245 13.2109 21.5234 10.6727 24.7C10.0641 25.457 8.93594 25.457 8.32734 24.7ZM9.5 12.6667C11.2466 12.6667 12.6667 11.2466 12.6667 9.5C12.6667 7.75339 11.2466 6.33333 9.5 6.33333C7.75339 6.33333 6.33333 7.75339 6.33333 9.5C6.33333 11.2466 7.75339 12.6667 9.5 12.6667Z" fill="black"/>
</svg>
