<svg width="42" height="42" viewBox="0 0 42 42" fill="none" xmlns="http://www.w3.org/2000/svg">
<path d="M20.9998 0.166668C9.70609 0.166668 0.166504 9.70625 0.166504 21C0.166504 32.2938 9.70609 41.8333 20.9998 41.8333C32.2936 41.8333 41.8332 32.2938 41.8332 21C41.8332 9.70625 32.2936 0.166668 20.9998 0.166668ZM20.9998 10.5833C24.5978 10.5833 27.2498 13.2333 27.2498 16.8333C27.2498 20.4333 24.5978 23.0833 20.9998 23.0833C17.404 23.0833 14.7498 20.4333 14.7498 16.8333C14.7498 13.2333 17.404 10.5833 20.9998 10.5833ZM10.3623 30.9417C12.2311 28.1917 15.3478 26.3583 18.9165 26.3583H23.0832C26.654 26.3583 29.7686 28.1917 31.6373 30.9417C28.9748 33.7917 25.1978 35.5833 20.9998 35.5833C16.8019 35.5833 13.0248 33.7917 10.3623 30.9417Z" fill="#FF8E15"/>
</svg>
